# xmcd CD database file
#
# Track frame offsets:
#	150
#	15177
#	37520
#	52906
#	66144
#	86475
#	98146
#	109395
#	124291
#	142811
#	158955
#	174536
#	192746
#	206169
#	223557
#	247809
#	268243
#	301341
#	326184
#
# Disc length: 4682 seconds
#
# Revision: 3
# Processed by: cddbd v1.5.1PL0 Copyright (c) Steve Scherf et al.
# Submitted via: CDex 1.51
#
DISCID=0a124813
DTITLE=Eric Clapton - Me and Mr Johnson
DYEAR=2005
DGENRE=Blues
TTITLE0=When you got a good friend
TTITLE1=Little queen of spades
TTITLE2=They're red hot
TTITLE3=Me and the devil blues
TTITLE4=Traveling riverside blues
TTITLE5=Last fair deal gone down
TTITLE6=Stop breakin' down blues
TTITLE7=Milkcow's calf blues
TTITLE8=Kind hearted woman blues
TTITLE9=Come on the my kitchen
TTITLE10=If I had possession over Judgement day
TTITLE11=Love in Vain
TTITLE12=32-20 blues
TTITLE13=Hell hound on my trail
TTITLE14=Bonus 1
TTITLE15=Bonus 2
TTITLE16=Bonus 3
TTITLE17=Bonus 4
TTITLE18=Bonus 5
EXTD=YEAR: 2005
EXTT0=
EXTT1=
EXTT2=
EXTT3=
EXTT4=
EXTT5=
EXTT6=
EXTT7=
EXTT8=
EXTT9=
EXTT10=
EXTT11=
EXTT12=
EXTT13=
EXTT14=
EXTT15=
EXTT16=
EXTT17=
EXTT18=
PLAYORDER=
